<?xml version="1.0" encoding="UTF-8" standalone="no"?>
<!DOCTYPE svg PUBLIC "-//W3C//DTD SVG 1.1//EN" "http://www.w3.org/Graphics/SVG/1.1/DTD/svg11.dtd">
<svg width="100%" height="100%" viewBox="0 0 50 45" version="1.1" xmlns="http://www.w3.org/2000/svg" xmlns:xlink="http://www.w3.org/1999/xlink" xml:space="preserve" xmlns:serif="http://www.serif.com/" style="fill-rule:evenodd;clip-rule:evenodd;stroke-linecap:round;stroke-linejoin:round;stroke-miterlimit:1.5;">
<g id="Check">
<ellipse cx="22.251" cy="22.247" rx="21.751" ry="21.747" style="fill:none;stroke:#000;stroke-width:1px;"/>
<ellipse cx="22.251" cy="22.247" rx="19.385" ry="19.382" style="fill:none;stroke:#000;stroke-width:1px;"/>
<ellipse cx="22.251" cy="22.247" rx="20.516" ry="20.512" style="fill:none;stroke:#fff;stroke-width:1px;"/>
<path d="M26.933,32.457c0,0 -11.509,-8.413 -14.636,-10.699c-0.206,-0.151 -0.463,-0.213 -0.715,-0.174c-0.253,0.039 -0.479,0.177 -0.629,0.383c-0.438,0.599 -1.043,1.427 -1.492,2.041c-0.34,0.464 -0.238,1.116 0.226,1.455c2.696,1.97 11.107,8.119 13.761,10.059c0.448,0.327 1.077,0.23 1.404,-0.218c0.788,-1.078 2.081,-2.847 2.081,-2.847Z" style="fill:#4698ff;stroke:#000;stroke-width:0.5px;"/>
<path d="M23.494,35.447c0.192,0.181 0.447,0.278 0.71,0.271c0.263,-0.007 0.513,-0.119 0.694,-0.31c3.573,-3.78 20.111,-21.272 23.699,-25.067c0.183,-0.193 0.281,-0.451 0.274,-0.716c-0.008,-0.266 -0.12,-0.518 -0.313,-0.7c-0.539,-0.51 -1.271,-1.202 -1.815,-1.716c-0.414,-0.392 -1.067,-0.373 -1.459,0.041c-4.078,4.313 -24.361,25.766 -24.361,25.766c0,0 1.602,1.515 2.571,2.431Z" style="fill:#4698ff;stroke:#000;stroke-width:0.4px;"/>
<path d="M26.375,32.757c0,0 -11.155,-8.277 -14.141,-10.493c-0.41,-0.304 -0.984,-0.238 -1.314,0.151c-0.391,0.461 -0.906,1.069 -1.314,1.55c-0.173,0.205 -0.254,0.472 -0.222,0.739c0.032,0.267 0.174,0.508 0.391,0.666c2.689,1.958 11.056,8.049 13.699,9.974c0.211,0.153 0.476,0.214 0.733,0.167c0.256,-0.046 0.483,-0.196 0.626,-0.414c0.62,-0.94 1.542,-2.34 1.542,-2.34Z" style="fill:#4698ff;"/>
<path d="M26.593,30.784c0,0 -12.277,-8.877 -15.513,-11.217c-0.428,-0.309 -1.026,-0.215 -1.339,0.211c-0.398,0.544 -0.933,1.273 -1.343,1.833c-0.164,0.223 -0.232,0.503 -0.189,0.777c0.043,0.274 0.194,0.519 0.418,0.682c2.795,2.02 11.674,8.439 14.241,10.294c0.403,0.291 0.958,0.244 1.306,-0.111c0.883,-0.901 2.419,-2.469 2.419,-2.469Z" style="fill:#ed4f24;stroke:#000;stroke-width:0.5px;"/>
<path d="M22.909,33.41c0.401,0.349 1.006,0.319 1.372,-0.067c3.581,-3.783 20.779,-21.954 24.475,-25.859c0.185,-0.195 0.283,-0.456 0.274,-0.725c-0.01,-0.268 -0.127,-0.522 -0.326,-0.703c-0.546,-0.499 -1.282,-1.172 -1.83,-1.673c-0.421,-0.385 -1.074,-0.355 -1.458,0.065c-4.081,4.465 -24.717,27.041 -24.717,27.041c0,0 1.343,1.167 2.21,1.921Z" style="fill:#ed4f24;stroke:#000;stroke-width:0.4px;"/>
<path d="M25.881,31.292c0,0 -11.884,-8.805 -15.045,-11.146c-0.424,-0.314 -1.021,-0.23 -1.343,0.188c-0.299,0.39 -0.663,0.865 -0.964,1.258c-0.156,0.204 -0.225,0.462 -0.19,0.717c0.034,0.255 0.169,0.486 0.374,0.641c4.655,3.516 9.134,6.83 14.174,10.283c0.408,0.28 0.959,0.22 1.298,-0.14c0.677,-0.719 1.696,-1.801 1.696,-1.801Z" style="fill:#ed4f24;"/>
<path d="M25.71,27.779c0,0 -12.277,-9.067 -15.512,-11.456c-0.427,-0.316 -1.029,-0.225 -1.344,0.202c-0.441,0.597 -1.05,1.422 -1.503,2.034c-0.164,0.222 -0.233,0.5 -0.192,0.773c0.041,0.273 0.189,0.519 0.411,0.683c2.809,2.074 11.874,8.77 14.639,10.812c0.447,0.33 1.076,0.235 1.405,-0.211c0.793,-1.074 2.096,-2.837 2.096,-2.837Z" style="fill:#fff;stroke:#000;stroke-width:1px;"/>
<path d="M22.343,30.695c0.403,0.373 1.031,0.348 1.403,-0.055c3.607,-3.9 20.598,-22.274 24.22,-26.19c0.18,-0.195 0.275,-0.454 0.265,-0.72c-0.01,-0.265 -0.126,-0.516 -0.321,-0.696c-0.544,-0.503 -1.284,-1.187 -1.833,-1.695c-0.419,-0.387 -1.072,-0.362 -1.459,0.057c-4.107,4.441 -24.873,26.897 -24.873,26.897c0,0 1.619,1.497 2.598,2.402Z" style="fill:#fff;stroke:#000;stroke-width:1px;"/>
<path d="M25.137,28.068c0,0 -11.81,-8.848 -14.954,-11.202c-0.422,-0.317 -1.02,-0.236 -1.343,0.181c-0.298,0.384 -0.66,0.851 -0.961,1.239c-0.16,0.205 -0.23,0.467 -0.194,0.724c0.035,0.258 0.173,0.49 0.383,0.645c2.719,2.008 11.62,8.582 14.296,10.559c0.424,0.314 1.022,0.224 1.336,-0.2c0.592,-0.803 1.437,-1.946 1.437,-1.946Z" style="fill:#fff;"/>
<path d="M26.031,28.403l-0.562,-0.535l-2.594,2.723l0.561,0.534l2.595,-2.722Z"/>
</g>
</svg>